<svg fill="none" height="100" viewBox="0 0 101 100" width="101" xmlns="http://www.w3.org/2000/svg" xmlns:xlink="http://www.w3.org/1999/xlink"><filter id="a" color-interpolation-filters="sRGB" filterUnits="userSpaceOnUse" height="103.226" width="100" x=".5" y="0"><feFlood flood-opacity="0" result="BackgroundImageFix"/><feBlend in="SourceGraphic" in2="BackgroundImageFix" mode="normal" result="shape"/><feColorMatrix in="SourceAlpha" result="hardAlpha" type="matrix" values="0 0 0 0 0 0 0 0 0 0 0 0 0 0 0 0 0 0 127 0"/><feOffset dy="3.22581"/><feGaussianBlur stdDeviation="1.6129"/><feComposite in2="hardAlpha" k2="-1" k3="1" operator="arithmetic"/><feColorMatrix type="matrix" values="0 0 0 0 0 0 0 0 0 0 0 0 0 0 0 0 0 0 0.25 0"/><feBlend in2="shape" mode="normal" result="effect1_innerShadow_4853_28023"/></filter><g filter="url(#a)"><path clip-rule="evenodd" d="m50.5 100c27.6142 0 50-22.3858 50-50s-22.3858-50-50-50-50 22.3858-50 50 22.3858 50 50 50zm6.2456-73.6741c-6.6259 3.9362-15.928 11.4262-21.376 19.5175-2.9385 4.3643-4.5662 8.6236-4.3611 12.4264.1393 2.5833 1.1379 5.1805 3.5479 7.6422 3.5991-1.5578 15.2632-7.6856 18.5282-22.6407.2682-1.2286 1.2465-2.0395 2.3166-2.2247 1.107-.1916 2.3855.2875 3.0046 1.5131 2.9086 5.7576 3.8475 13.9941 2.9285 20.7739-.2906 2.1446-.7782 4.2319-1.4985 6.1024 1.4761-1.1885 2.5886-2.6278 3.4171-4.2439 1.8071-3.5248 2.3614-8.0965 1.956-13.1517-.7505-9.3567-4.7198-19.5459-8.4633-25.7145zm-18.037 42.7984c1.3317.7617 3.0906 1.4498 4.9934 2.0045 2.5428.7011 5.1828 1.0784 7.2454 1.0782 1.2182-.0001 2.3631-.638 3.4215-2.2824 1.0858-1.6868 1.8964-4.1993 2.3062-7.2225.5614-4.1423.3186-8.8261-.6502-12.8834-4.2348 11.0218-12.5575 16.7869-17.3163 19.3056zm-12.3952-10.6013c.2642 4.8987 2.6877 9.3847 7.6717 13.0948 1.9384 1.66 4.6645 2.8731 7.3049 3.7015.3698.116.7439.2263 1.1208.3307 1.0231.2975 2.053.5523 3.052.7632 1.7205.3632 3.4196.611 4.9307.718 1.4657.1039 2.9197.0883 4.0718-.171 6.3576-1.4311 10.5609-4.9206 12.9717-9.623 2.356-4.5956 2.9019-10.1477 2.4587-15.6727-.8844-11.0262-5.7885-22.9016-10.177-29.4171-.8205-1.2182-2.4185-1.6169-3.7181-.9085-7.1218 3.8819-18.1285 12.3692-24.5312 21.8784-3.2002 4.753-5.4399 10.0413-5.156 15.3057z" fill="#c692cf" fill-rule="evenodd"/></g></svg>