<svg fill="none" height="101" viewBox="0 0 101 101" width="101" xmlns="http://www.w3.org/2000/svg" xmlns:xlink="http://www.w3.org/1999/xlink"><filter id="a" color-interpolation-filters="sRGB" filterUnits="userSpaceOnUse" height="103.226" width="100" x=".5" y=".567383"><feFlood flood-opacity="0" result="BackgroundImageFix"/><feBlend in="SourceGraphic" in2="BackgroundImageFix" mode="normal" result="shape"/><feColorMatrix in="SourceAlpha" result="hardAlpha" type="matrix" values="0 0 0 0 0 0 0 0 0 0 0 0 0 0 0 0 0 0 127 0"/><feOffset dy="3.22581"/><feGaussianBlur stdDeviation="1.6129"/><feComposite in2="hardAlpha" k2="-1" k3="1" operator="arithmetic"/><feColorMatrix type="matrix" values="0 0 0 0 0 0 0 0 0 0 0 0 0 0 0 0 0 0 0.25 0"/><feBlend in2="shape" mode="normal" result="effect1_innerShadow_4853_28032"/></filter><g filter="url(#a)"><path clip-rule="evenodd" d="m50.5 100.567c27.6142 0 50-22.3854 50-49.9996 0-27.6143-22.3858-50.000017-50-50.000017s-50 22.385717-50 50.000017c0 27.6142 22.3858 49.9996 50 49.9996zm7.5372-76.4226c-.6846-.7112-1.6949-1.0061-2.6546-.775l-15.5708 3.7497c-.5987.1442-1.1325.4829-1.5179.9631l-12.7627 15.9023c-.5371.6692-.7352 1.5488-.5369 2.3836l3.8083 16.0313c.1295.5451.4207 1.0385.8353 1.4153l17.4438 15.8536c.9413.8556 2.3431.9634 3.4043.2619l19.2713-12.7401c.731-.4832 1.1915-1.2827 1.2427-2.1575l1.442-24.6373c.0454-.7744-.2348-1.5326-.7728-2.0914zm-6.7735 4.8932-7.9787 1.9214 2.7644 5.5629zm-21.6467 17.1194 9.9703-12.423 3.4052 6.8526.0876.1973-10.9917 15.7769zm4.4403 15.5309 11.1786-16.0453 3.8417 8.6581c-.1115.2571-.1844.5312-.2143.8136l-1.9395 18.2672zm17.3891 12.1574 12.8665-8.5059-11.2367-6.8449zm3.5936-19.478 11.616 7.0761 1.0289-17.5781-5.2496 2.6733zm11.3806-14.9601-6.709-6.9686 1.7938 9.4717zm-18.1461 1.874 6.6712-9.5755 2.5463 13.4453-5.1033 5.4025z" fill="#c19b39" fill-rule="evenodd"/></g></svg>