<svg fill="none" height="100" viewBox="0 0 101 100" width="101" xmlns="http://www.w3.org/2000/svg" xmlns:xlink="http://www.w3.org/1999/xlink"><filter id="a" color-interpolation-filters="sRGB" filterUnits="userSpaceOnUse" height="103.226" width="100" x=".5" y="0"><feFlood flood-opacity="0" result="BackgroundImageFix"/><feBlend in="SourceGraphic" in2="BackgroundImageFix" mode="normal" result="shape"/><feColorMatrix in="SourceAlpha" result="hardAlpha" type="matrix" values="0 0 0 0 0 0 0 0 0 0 0 0 0 0 0 0 0 0 127 0"/><feOffset dy="3.22581"/><feGaussianBlur stdDeviation="1.6129"/><feComposite in2="hardAlpha" k2="-1" k3="1" operator="arithmetic"/><feColorMatrix type="matrix" values="0 0 0 0 0 0 0 0 0 0 0 0 0 0 0 0 0 0 0.25 0"/><feBlend in2="shape" mode="normal" result="effect1_innerShadow_4853_28056"/></filter><g filter="url(#a)"><path clip-rule="evenodd" d="m50.5 100c27.6142 0 50-22.3858 50-50s-22.3858-50-50-50-50 22.3858-50 50 22.3858 50 50 50zm2.2079-72.971v-.0703h-1.8157-.0033-.0024-.5084-.0024-.0033-1.8157v.0703l-.0106.0007c-1.1202.0699-2.697.209-4.5488.4865-3.6809.5515-8.5565 1.6652-13.1064 3.9429-3.2031 1.6035-6.104 4.0552-8.1524 6.0259-1.0375.9982-1.8851 1.9012-2.4758 2.5575-.2958.3286-.5283.5966-.6893.7854-.0805.0944-.1431.1691-.187.2217l-.0514.0622-.0149.0182-.0047.0057-.0023.0028c-.0003.0004-.0006.0007 1.8062 1.4716 1.8069 1.4709 1.8068 1.4709 1.8066 1.4712l.007-.0085.0349-.0422c.0326-.0391.0834-.0997.1515-.1796.1363-.1598.3413-.3963.6067-.6911.5317-.5907 1.3013-1.4108 2.2432-2.3169 1.9103-1.838 4.4167-3.9201 7.0076-5.2172 3.9476-1.9762 8.2941-2.9894 11.711-3.5014 1.2951-.1941 2.4412-.3138 3.3605-.3877v2.1284l-8.3011 13.674c-3.2479.7756-5.9778.7518-7.9177.527-1.0573-.1226-1.8792-.3049-2.4199-.4499-.2701-.0724-.4693-.1354-.5917-.1765-.0612-.0206-.1031-.0356-.125-.0437l-.0151-.0056.0042.0016.0044.0018c.0009.0003.0018.0007-.8622 2.1644-.8639 2.1638-.863 2.1641-.862 2.1645l.0063.0025.0102.004.0265.0103c.0106.0041.0227.0087.0362.0137.0125.0048.0263.0099.0414.0154.0624.023.1462.0529.2507.088.2088.0702.5006.1614.8692.2603.7368.1975 1.7833.4263 3.0903.5778 1.5773.1829 3.5349.2531 5.7826.0198-1.3202 2.1834-2.9846 4.1904-4.7425 5.0077l1.9645 4.2253c3.114-1.4477 5.3987-4.5449 6.8151-6.9045.7402-1.2331 1.3121-2.3834 1.6993-3.225.1943-.4224.3438-.7709.4465-1.018.032-.0772.0595-.1446.0825-.2014l4.9565-8.1648v20.6983c-2.2146.7854-3.7702 2.5724-4.7109 3.952-.665.9754-1.1538 1.9345-1.4749 2.641-.1621.3566-.2852.657-.3697.8739-.0423.1086-.0751.1968-.0986.2612-.0117.0323-.0211.0586-.0281.0786l-.0088.0253-.0031.0089-.0018.0052c-.0002.0007-.0005.0014 2.2047.7531 2.2053.7518 2.205.7524 2.2048.7531l.0115-.0318c.0121-.0332.0325-.0883.0612-.162.0576-.1479.1477-.3685.2699-.6373.2472-.544.611-1.2522 1.0829-1.9442 1.032-1.5137 2.1293-2.3174 3.1908-2.3174 1.0614 0 2.1587.8037 3.1907 2.3174.4719.692.8357 1.4002 1.0829 1.9442.1222.2688.2123.4894.2699.6373.0287.0737.0492.1288.0613.162l.0114.0318c-.0002-.0007-.0005-.0013 2.2048-.7531 2.2052-.7517 2.2049-.7524 2.2047-.7531l-.0018-.0052-.0031-.0089-.0088-.0253c-.007-.02-.0164-.0463-.0281-.0786-.0234-.0644-.0563-.1526-.0986-.2612-.0845-.2169-.2076-.5173-.3696-.8739-.3212-.7065-.81-1.6656-1.475-2.641-.9406-1.3796-2.4963-3.1666-4.7109-3.952v-20.7146l4.9665 8.1811c.0229.0568.0504.1242.0824.2014.1027.2471.2523.5956.4465 1.018.3872.8416.9591 1.9919 1.6993 3.225 1.4165 2.3596 3.7011 5.4568 6.8152 6.9045l1.9644-4.2253c-1.7579-.8173-3.4223-2.8243-4.7425-5.0077 2.2477.2333 4.2053.1631 5.7827-.0198 1.3069-.1515 2.3535-.3803 3.0902-.5778.3686-.0989.6604-.1901.8693-.2603.1044-.0351.1883-.065.2507-.088l.0181-.0067.0314-.0117.028-.0107.0266-.0103.0102-.004.0063-.0025c.0009-.0004.0018-.0007-.8621-2.1645-.8639-2.1637-.8631-2.1641-.8622-2.1644l.0044-.0018-.0109.004c-.0219.0081-.0638.0231-.125.0437-.1224.0411-.3216.1041-.5917.1765-.5407.145-1.3626.3273-2.4199.4499-1.9398.2248-4.6697.2486-7.9177-.527l-8.301-13.674v-2.1284c.9193.0739 2.0653.1936 3.3605.3877 3.4168.512 7.7633 1.5252 11.7109 3.5014 2.5909 1.2971 5.0973 3.3792 7.0077 5.2172.9418.9061 1.7114 1.7262 2.2431 2.3169.2655.2948.4704.5313.6067.6911.0681.0799.1189.1405.1515.1796l.035.0422.0069.0085c-.0002-.0003-.0002-.0003 1.8066-1.4712s1.8065-1.4712 1.8063-1.4716l-.0024-.0028-.0047-.0057-.0149-.0182-.0514-.0622c-.0438-.0526-.1065-.1273-.187-.2217-.1609-.1888-.3935-.4568-.6892-.7854-.5908-.6563-1.4384-1.5593-2.4759-2.5575-2.0484-1.9707-4.9493-4.4224-8.1523-6.0259-4.55-2.2777-9.4256-3.3914-13.1065-3.9429-1.8518-.2775-3.4286-.4166-4.5487-.4865z" fill="#4e8545" fill-rule="evenodd"/></g></svg>