<svg fill="none" height="101" viewBox="0 0 101 101" width="101" xmlns="http://www.w3.org/2000/svg" xmlns:xlink="http://www.w3.org/1999/xlink"><filter id="a" color-interpolation-filters="sRGB" filterUnits="userSpaceOnUse" height="103.226" width="100" x=".5" y=".025391"><feFlood flood-opacity="0" result="BackgroundImageFix"/><feBlend in="SourceGraphic" in2="BackgroundImageFix" mode="normal" result="shape"/><feColorMatrix in="SourceAlpha" result="hardAlpha" type="matrix" values="0 0 0 0 0 0 0 0 0 0 0 0 0 0 0 0 0 0 127 0"/><feOffset dy="3.22581"/><feGaussianBlur stdDeviation="1.6129"/><feComposite in2="hardAlpha" k2="-1" k3="1" operator="arithmetic"/><feColorMatrix type="matrix" values="0 0 0 0 0 0 0 0 0 0 0 0 0 0 0 0 0 0 0.25 0"/><feBlend in2="shape" mode="normal" result="effect1_innerShadow_4853_28045"/></filter><g filter="url(#a)"><path clip-rule="evenodd" d="m50.5 100.025c27.6142 0 50-22.3854 50-49.9996s-22.3858-50.0000094-50-50.0000094-50 22.3858094-50 50.0000094 22.3858 49.9996 50 49.9996zm16.5758-34.6545c1.6133-.255 2.727-1.7528 2.5067-3.3713l-5.3372-39.2107c-.3209-2.3579-3.1261-3.4236-4.9317-1.8736l-30.3464 26.0504c-1.2329 1.0584-1.4004 2.9055-.3779 4.1683l7.9735 9.8481 1.6991 15.6227c.2687 2.4704 3.2504 3.5642 5.0528 1.8534l11.796-11.1961zm-6.0238-3.9821-7.2764 1.1501c-.6003.0949-1.1577.3697-1.5985.7881l-4.9854 4.7318 4.9497-13.4015zm-19.7036-1.4808.8322 7.6516 5.3552-14.4997-11.6907-.7094 4.8518 5.9925c.363.4483.5891.9916.6515 1.565zm22.71-2.3561-3.4495-25.3429-6.5656 17.7769zm-7.8277-27.5669-20.3672 17.4839 13.6049.8256z" fill="#6896cc" fill-rule="evenodd"/></g></svg>